<svg xmlns="http://www.w3.org/2000/svg" viewBox="0 0 512 512"><path fill="#dbdbdb" d="M365.557 248.556c23.518-24.742 37.837-57.488 37.837-93.404 0-17.906-3.562-35.022-10.044-50.753 19.569-8.208 33.317-27.546 33.317-50.095C426.666 24.312 402.354 0 372.363 0c-21.616 0-40.279 12.631-49.019 30.914-20.186-9.841-43.08-15.399-67.344-15.399s-47.16 5.558-67.347 15.399C179.913 12.631 161.25 0 139.636 0c-29.991 0-54.303 24.312-54.303 54.303 0 22.55 13.746 41.888 33.317 50.095a132.795 132.795 0 0 0-10.044 50.753c0 35.916 14.319 68.662 37.837 93.404-41.235 39.013-107.441 101.769-91.749 164.532 7.255 29.023 26.186 40.513 46.223 41.554 1.423-37.14 28.627-66.763 61.992-66.763 34.275 0 62.061 31.258 62.061 69.818 0 21.938-9.002 41.503-23.068 54.303h108.196c-14.068-12.8-23.068-32.365-23.068-54.303 0-38.56 27.784-69.818 62.061-69.818 33.364 0 60.568 29.622 61.992 66.76 20.036-1.041 38.968-12.53 46.224-41.551 15.689-62.763-50.514-125.518-91.75-164.531zM133.948 76.845c-10.099-2.54-17.585-11.655-17.585-22.542 0-12.853 10.42-23.273 23.273-23.273 10.539 0 19.431 7.011 22.295 16.62-10.713 8.423-20.146 18.254-27.983 29.195zm184.112 66.67c6.428 0 11.636 5.21 11.636 11.636 0 6.426-5.208 11.636-11.636 11.636s-11.636-5.21-11.636-11.636c0-6.426 5.208-11.636 11.636-11.636zm-124.121 0c6.428 0 11.636 5.21 11.636 11.636 0 6.426-5.208 11.636-11.636 11.636s-11.636-5.21-11.636-11.636c0-6.426 5.208-11.636 11.636-11.636zM256 294.788c-51.413 0-93.091-27.785-93.091-62.061s41.678-62.061 93.091-62.061 93.091 27.785 93.091 62.061-41.679 62.061-93.091 62.061zm94.068-247.136c2.863-9.61 11.756-16.621 22.295-16.621 12.853 0 23.273 10.42 23.273 23.273 0 10.887-7.486 20.002-17.585 22.544-7.837-10.943-17.27-20.775-27.983-29.196z"/><circle fill="#dbdbdb" cx="161.931" cy="461.576" r="27.152"/><circle fill="#dbdbdb" cx="350.052" cy="461.576" r="27.152"/><path fill="#dbdbdb" d="M256 201.697c-17.138 0-31.03 1.806-31.03 15.515s13.892 31.03 31.03 31.03 31.03-17.321 31.03-31.03-13.892-15.515-31.03-15.515z"/></svg>