<svg xmlns="http://www.w3.org/2000/svg" width="25" height="25" viewBox="0 0 96.806 96.806"><path fill="#dbdbdb" d="M80.599 52.689c-1.591-.315-3.276.451-5.044-.201a12.95 12.95 0 0 0 .291-2.719V34.643c0-7.16-5.805-12.965-12.965-12.965 0 0-6.915 4.43-14.694 4.537-7.779.109-14.262-4.537-14.262-4.537-7.161 0-12.965 5.805-12.965 12.965V49.77c0 .889.091 1.758.262 2.6-2.002.761-3.899.089-5.671.455C5.988 54.798 0 46.688 0 52.654c0 5.967 21.669 22.474 48.402 22.474s48.404-14.94 48.404-22.474c0-7.531-6.262 2.015-16.207.035zM47.32 62.328c-13.798 0-24.983-3.528-24.983-7.883 0-.981.574-1.922 1.614-2.789 3.571 2.978 12.685 5.095 23.369 5.095s20.122-2.117 23.693-5.095c1.04.867 1.29 1.808 1.29 2.789.001 4.354-11.184 7.883-24.983 7.883z"/></svg>