<svg xmlns="http://www.w3.org/2000/svg" viewBox="0 0 246.5 246.5"><path d="M204.667 220.542a7.5 7.5 0 0 0-7.5-7.5h-148a7.5 7.5 0 0 0-7.5 7.5v16a7.5 7.5 0 0 0 7.5 7.5h148a7.5 7.5 0 0 0 7.5-7.5v-16zm24.109-173.49c-2.861-1.616-6.438-1.21-8.828 1.042l-51.802 48.72-38.255-48.677c-1.423-1.805-3.594-3.094-5.892-3.094h-.009c-2.302 0-4.475 1.297-5.894 3.109L79.839 97.195 28.051 48.438a7.5 7.5 0 0 0-12.472 7.045l28.883 133.643a7.5 7.5 0 0 0 7.331 5.916h144.414a7.506 7.506 0 0 0 7.331-5.926l28.883-133.937a7.52 7.52 0 0 0-3.645-8.127zM108.529 17.179c0 8.117 6.604 14.721 14.721 14.721s14.721-6.604 14.721-14.721-6.604-14.721-14.721-14.721-14.721 6.604-14.721 14.721zm-79.088 7.002c0-8.117-6.604-14.721-14.721-14.721S0 16.063 0 24.181s6.604 14.721 14.721 14.721 14.72-6.604 14.72-14.721zM231.779 9.46c-8.117 0-14.721 6.604-14.721 14.721s6.604 14.721 14.721 14.721S246.5 32.298 246.5 24.181 239.896 9.46 231.779 9.46z" fill="#acded5"/></svg>