<svg xmlns="http://www.w3.org/2000/svg" width="25" height="25" viewBox="0 0 14.702 14.702"><path d="M12.361 10.226L9.408 6.595c-.083-.065-.162-.157-.285-.237a1.137 1.137 0 0 0-.077-.051 1.734 1.734 0 0 0-.331-.179c-.364-.149-.687-.197-1.091-.215-.586-.022-1.009.215-1.392.511a2.161 2.161 0 0 0-.189.171c-.139.139-.189.205-.307.331-.023.022-.023.031-.043.051l-3.216 4.065c-.039.083-.293.537-.293.854 0 .491.023.722.211 1.161.051.123.128.247.2.353.137.197.165.194.25.303.074.095.189.18.289.254.077.06.165.117.251.163.013.005.027.014.041.022.14.07.298.139.46.165l.5.054h.156c.528-.022 1.349-.265 1.816-.393.122-.035.253-.063.384-.095l.849-.105c.417-.025 1.192.143 1.614.265.479.143 1.055.303 1.551.328h.26c.484-.025.935-.2 1.299-.501.471-.386.767-.858.857-1.479.121-.838-.205-1.362-.7-2.021-.039-.052-.071-.095-.111-.144zm1.619-5.107c-.721-.311-1.703.609-2.077 1.472-.373.864-.091 1.816.631 2.129.721.312 1.607-.136 1.98-.999.374-.864.187-2.289-.534-2.602zm-4.338.238c.951.203 1.918-.556 2.161-1.693.243-1.138-.331-2.821-1.281-3.024-.95-.202-1.916 1.151-2.158 2.289-.244 1.138.328 2.226 1.278 2.428zm-4.216.059c1.031-.082 1.788-1.15 1.689-2.385C7.017 1.795 5.922.252 4.889.334 3.858.417 3.284 2.092 3.382 3.327c.097 1.236 1.013 2.171 2.044 2.089zM3.296 6.46C3.029 5.403 1.851 4.227.969 4.45.087 4.674-.166 6.211.101 7.267.369 8.324 1.3 9 2.183 8.777c.882-.224 1.381-1.261 1.113-2.317z" fill="#dbdbdb"/></svg>