<svg xmlns="http://www.w3.org/2000/svg" viewBox="0 0 512 512"><path fill="#dbdbdb" d="M346.324 322.217l130.853 108.886V384.85a255.19 255.19 0 0 0 26.136-62.633H346.324zM68.053 426.668c-.502.414-1.031.774-1.575 1.09 31.543 34.747 72.45 60.816 118.61 74.19V330.176L68.053 426.668zm258.86-416.644v166.441L446.717 85.57c-31.653-35.395-72.976-61.999-119.804-75.546zm134.646 93.752l-113.36 86.007h155.064c-8.453-31.422-22.77-60.513-41.704-86.007z"/><path fill="#dbdbdb" d="M508.409 213.258H315.175c-6.482 0-11.738-5.255-11.738-11.738V4.425A255.505 255.505 0 0 0 259.998.03a257.579 257.579 0 0 0-51.435 4.37v197.12c0 6.483-5.256 11.738-11.738 11.738H3.555a258.083 258.083 0 0 0-3.528 46.444 255.749 255.749 0 0 0 3.551 39.039h193.248c6.482 0 11.738 5.255 11.738 11.738v197.074a255.423 255.423 0 0 0 48.83 4.443 256.121 256.121 0 0 0 46.043-4.42V310.479c.001-6.483 5.256-11.738 11.739-11.738h193.249a256.54 256.54 0 0 0 3.564-40.27 255.82 255.82 0 0 0-3.58-45.213z"/><path fill="#dbdbdb" d="M8.708 322.217c8.642 32.178 23.428 61.862 42.999 87.736a11.82 11.82 0 0 1 1.413-1.398l104.72-86.338H8.708zm38.815-214.802c-17.549 24.579-30.854 52.389-38.859 82.368H157.83L47.523 107.415zm14.5-18.473l123.066 91.896V9.969C136.634 23.911 94.072 51.762 62.023 88.942zm264.89 247.663V501.98a255.331 255.331 0 0 0 44.076-17.274h67.856c16.495 0 30.554-10.421 35.961-25.036L326.913 336.605z"/></svg>