<svg xmlns="http://www.w3.org/2000/svg" viewBox="0 0 469.333 469.333"><path fill="#acded5" d="M441.823 0C347.99 0 234.667 67.375 234.667 151.042c0 .49.135 1.885.198 2.375.156 4.75 3.427 8.833 8.031 10 4.573 1.177 9.438-.833 11.833-4.938 28.052-47.854 69.198-84.656 125.813-112.521 5.24-2.625 11.719-.292 14.26 4.854a10.618 10.618 0 0 1 .531 8.156 10.545 10.545 0 0 1-5.375 6.125c-63.624 31.331-106.371 74.453-130.747 131.734-.396.583-.897 1.069-1.18 1.745-15.292 36.875-23.156 80.635-23.365 130.073-3.763-9.914-8.207-19.344-12.988-28.54 8.478-13.006 12.988-27.158 12.988-42.397 0-83.667-113.323-151.042-207.156-151.042C12.344 106.667 0 119.01 0 134.177c0 93.833 67.375 207.156 151.052 207.156 20.585 0 39.24-8.055 55.631-23.479 18.693 39.413 27.983 85.697 27.983 140.813a10.66 10.66 0 0 0 10.667 10.667A10.66 10.66 0 0 0 256 458.667v-128c0-41.746 5.992-78.711 17.174-110.754 13.758 9.737 28.859 14.754 45.117 14.754 83.667 0 151.042-113.323 151.042-207.156C469.333 12.344 456.99 0 441.823 0z"/></svg>