<svg xmlns="http://www.w3.org/2000/svg" viewBox="0 0 272.523 272.523"><path fill="#acded5" d="M193.26 118.059c-.877 0-1.777.126-2.677.373l-10.172 2.802-10.561-25.73c-2.993-7.289-11.838-13.22-19.717-13.22h-98.85c-7.88 0-16.724 5.931-19.716 13.22l-10.548 25.694-10.046-2.767a10.115 10.115 0 0 0-2.676-.373c-4.808 0-8.297 3.673-8.297 8.732v5.996c0 5.906 4.806 10.712 10.712 10.712h1.151l-1.705 4.153c-2.78 6.77-5.043 18.236-5.043 25.558v51.115c0 5.906 4.806 10.712 10.712 10.712h13.99c5.906 0 10.712-4.806 10.712-10.712V211.56h120.357v12.764c0 5.906 4.806 10.712 10.712 10.712h13.988c5.906 0 10.712-4.806 10.712-10.712V173.21c0-7.321-2.263-18.787-5.043-25.558l-1.705-4.153h1.294c5.906 0 10.712-4.806 10.712-10.712v-5.996c.001-5.059-3.489-8.732-8.296-8.732zM28.698 137.681l15.978-38.918c1.79-4.36 7.11-7.928 11.823-7.928h88.418c4.713 0 10.033 3.567 11.823 7.928l15.978 38.918c1.789 4.36-.602 7.928-5.315 7.928H34.014c-4.714-.001-7.105-3.568-5.316-7.928zm35.667 49.227a4.297 4.297 0 0 1-4.284 4.284H29.729a4.297 4.297 0 0 1-4.285-4.284v-14.566a4.297 4.297 0 0 1 4.285-4.284h30.352a4.298 4.298 0 0 1 4.284 4.284v14.566zm111.319 0a4.297 4.297 0 0 1-4.284 4.284h-30.352a4.298 4.298 0 0 1-4.284-4.284v-14.566a4.298 4.298 0 0 1 4.284-4.284H171.4a4.298 4.298 0 0 1 4.284 4.284v14.566z"/><g fill="#acded5"><path d="M259.125 37.486H208.39c-7.388 0-13.398 6.011-13.398 13.398v50.736c0 7.388 6.011 13.399 13.398 13.399h20.367v113.872a5 5 0 0 0 5 5 5 5 0 0 0 5-5V115.02h20.368c7.388 0 13.398-6.011 13.398-13.399V50.885c0-7.388-6.01-13.399-13.398-13.399zm-11.491 42.067c-2.918 2.627-7.216 3.959-12.774 3.959h-7.347c-.882 0-1.6.719-1.6 1.601v12.389a2.443 2.443 0 0 1-2.441 2.44h-5.564a2.443 2.443 0 0 1-2.441-2.44V55.007a2.444 2.444 0 0 1 2.441-2.442h14.016c9.285 0 12.751 1.399 15.599 3.816 3.004 2.549 4.526 6.453 4.526 11.606-.001 5.035-1.485 8.925-4.415 11.566z"/><path d="M239.681 62.825c-1.356-1.024-3.755-1.544-7.129-1.544h-5.039c-.882 0-1.6.718-1.6 1.599v10.182c0 .881.718 1.599 1.6 1.599h3.019c1.109 0 2.901-.082 3.994-.183 1.061-.097 4.056-.531 5.155-1.361 1.319-.998 1.988-2.724 1.988-5.129 0-2.428-.669-4.165-1.988-5.163z"/></g></svg>