<svg xmlns="http://www.w3.org/2000/svg" width="921" height="921" viewBox="0 0 921 921"><path d="M120.55 318v573c0 16.6 13.4 30 30 30h619.9c16.6 0 30-13.4 30-30V318c0-10.9-5.9-21-15.5-26.3l-152.701-84.3v-43.8h-343.5v43.7l-152.7 84.3C126.45 297 120.55 307 120.55 318zm130.9 224c0-16.6 13.4-30 30-30h111.3V400.8c0-16.601 13.4-30 30-30h75.5c16.602 0 30 13.399 30 30v111.3h111.2c16.6 0 30 13.4 30 30v75.5c0 16.6-13.4 30-30 30H528.149v112.5c0 16.6-13.4 30-30 30h-75.5c-16.601 0-30-13.4-30-30V647.5h-111.2c-16.6 0-30-13.4-30-30V542zm6.5-443.4c0 16.6 13.4 30 30 30h345.001c16.6 0 30-13.4 30-30V30c0-16.6-13.4-30-30-30h-345c-16.6 0-30 13.4-30 30v68.6z" fill="#dbdbdb"/></svg>