<svg xmlns="http://www.w3.org/2000/svg" viewBox="0 0 13.282 13.282"><g fill="#dbdbdb"><path d="M11.337 5.856c0-.804-2.11-1.893-4.587-1.893-2.475 0-4.732 1.089-4.732 1.893l-.874 5.97c0 .806.652 1.456 1.456 1.456h8.081c.805 0 1.457-.65 1.457-1.456l-.801-5.97z"/><path d="M2.381 4.216c.044-.025 4.448-2.471 8.467.231a.288.288 0 0 0 .404-.079.29.29 0 0 0-.079-.404A7.901 7.901 0 0 0 7.499 2.64l.38-.894.02.002a.874.874 0 1 0-.873-.874c0 .267.121.502.31.663l-.454 1.064a9.196 9.196 0 0 0-.439-.002l-.432-1.074a.865.865 0 0 0 .296-.651.874.874 0 1 0-.874.874c.013 0 .025-.003.038-.003l.357.889c-2.144.191-3.709 1.061-3.736 1.076a.29.29 0 0 0-.108.396.29.29 0 0 0 .397.11z"/></g></svg>