<?xml version="1.0" encoding="iso-8859-1"?>
<!-- Generator: Adobe Illustrator 18.1.1, SVG Export Plug-In . SVG Version: 6.00 Build 0)  -->
<svg version="1.1" id="Capa_1" xmlns="http://www.w3.org/2000/svg" xmlns:xlink="http://www.w3.org/1999/xlink" x="0px" y="0px"
	 viewBox="0 0 13.282 13.282" style="enable-background:new 0 0 13.282 13.282;" xml:space="preserve">
<g>
	<g>
		<path style="fill:#acded5;" d="M11.337,5.856c0-0.804-2.11-1.893-4.587-1.893c-2.475,0-4.732,1.089-4.732,1.893l-0.874,5.97
			c0,0.806,0.652,1.456,1.456,1.456h8.081c0.805,0,1.457-0.65,1.457-1.456L11.337,5.856z"/>
		<path style="fill:#acded5;" d="M2.381,4.216c0.044-0.025,4.448-2.471,8.467,0.231c0.051,0.033,0.106,0.05,0.162,0.05
			c0.094,0,0.187-0.045,0.242-0.129c0.09-0.133,0.055-0.314-0.079-0.404C9.941,3.135,8.677,2.757,7.499,2.64l0.38-0.894
			c0.007,0,0.013,0.002,0.02,0.002c0.483,0,0.874-0.391,0.874-0.874C8.773,0.392,8.382,0,7.899,0C7.417,0,7.026,0.392,7.026,0.874
			c0,0.267,0.121,0.502,0.31,0.663L6.882,2.601C6.734,2.597,6.588,2.596,6.443,2.599L6.011,1.525
			c0.181-0.16,0.296-0.391,0.296-0.651C6.307,0.392,5.916,0,5.433,0C4.951,0,4.56,0.392,4.56,0.874c0,0.483,0.391,0.874,0.873,0.874
			c0.013,0,0.025-0.003,0.038-0.003l0.357,0.889C3.684,2.825,2.119,3.695,2.092,3.71C1.953,3.789,1.904,3.967,1.984,4.106
			C2.063,4.247,2.241,4.295,2.381,4.216z"/>
	</g>
</g>
<g>
</g>
<g>
</g>
<g>
</g>
<g>
</g>
<g>
</g>
<g>
</g>
<g>
</g>
<g>
</g>
<g>
</g>
<g>
</g>
<g>
</g>
<g>
</g>
<g>
</g>
<g>
</g>
<g>
</g>
</svg>
