<svg xmlns="http://www.w3.org/2000/svg" viewBox="0 0 612.001 612.001"><g fill="#dbdbdb"><path d="M607.416 67.76a15.624 15.624 0 0 0-12.231-4.536l-24.713 1.863-12.533 166.342a46.962 46.962 0 0 1-13.609 29.655L239.047 566.365a47.514 47.514 0 0 1-4.835 4.212l30.303 30.303c6.107 6.109 16.016 6.112 22.121 0l305.282-305.279a15.647 15.647 0 0 0 4.538-9.885l15.5-205.721a15.65 15.65 0 0 0-4.54-12.235z"/><path d="M526.741 229.076l15.5-205.72a15.627 15.627 0 0 0-4.54-12.235 15.636 15.636 0 0 0-12.232-4.54l-205.72 15.503a15.641 15.641 0 0 0-9.887 4.536L4.58 331.901c-6.107 6.109-6.107 16.016 0 22.123l190.223 190.221a15.593 15.593 0 0 0 11.061 4.58 15.6 15.6 0 0 0 11.061-4.58l305.282-305.282a15.64 15.64 0 0 0 4.534-9.887zm-78.754-68.912c-16.382 16.382-42.945 16.382-59.331 0-16.377-16.382-16.377-42.943.003-59.325 16.381-16.382 42.943-16.382 59.327 0 16.378 16.382 16.378 42.944.001 59.325z"/></g></svg>