<svg xmlns="http://www.w3.org/2000/svg" width="25" height="25" viewBox="0 0 297 297"><g fill="#acded5"><path d="M148.5 119.25c20.352 0 39.634-2.274 54.295-6.405l.253-.073c-5.207-25.357-27.65-44.428-54.548-44.428-26.898 0-49.341 19.07-54.548 44.428.086.024.166.049.253.073 14.661 4.131 33.943 6.405 54.295 6.405z"/><path d="M208.498 127.845c-16.23 4.775-37.495 7.405-59.998 7.405-22.083 0-42.961-2.538-59.071-7.145L59.791 77.811a8 8 0 0 0-13.785 8.123l27.637 46.899-54.506.915c-4.418.066-7.944 3.804-7.878 8.222.066 4.377 3.635 7.779 7.997 7.779h.123l45.118-.663L0 206.156c74.25 0 74.25 22.5 148.5 22.5s74.25-22.5 148.5-22.5l-88.502-78.311z"/></g></svg>