<?xml version="1.0" encoding="iso-8859-1"?>
<!-- Generator: Adobe Illustrator 18.0.0, SVG Export Plug-In . SVG Version: 6.00 Build 0)  -->
<!DOCTYPE svg PUBLIC "-//W3C//DTD SVG 1.1//EN" "http://www.w3.org/Graphics/SVG/1.1/DTD/svg11.dtd">
<svg version="1.1" id="Capa_1" xmlns="http://www.w3.org/2000/svg" xmlns:xlink="http://www.w3.org/1999/xlink" x="0px" y="0px" width="25px" height="25px"
	 viewBox="0 0 297 297" style="enable-background:new 0 0 297 297;" xml:space="preserve">
<g>
	<path fill="#acded5" d="M148.5,119.25c20.352,0,39.634-2.274,54.295-6.405c0.086-0.024,0.167-0.049,0.253-0.073
		c-5.207-25.357-27.65-44.428-54.548-44.428c-26.898,0-49.341,19.07-54.548,44.428c0.086,0.024,0.166,0.049,0.253,0.073
		C108.866,116.976,128.148,119.25,148.5,119.25z"/>
	<path fill="#acded5" d="M208.498,127.845c-16.23,4.775-37.495,7.405-59.998,7.405c-22.083,0-42.961-2.538-59.071-7.145L59.791,77.811
		c-2.243-3.806-7.146-5.074-10.954-2.831c-3.807,2.243-5.074,7.147-2.831,10.954l27.637,46.899l-54.506,0.915
		c-4.418,0.066-7.944,3.804-7.878,8.222c0.066,4.377,3.635,7.779,7.997,7.779c0.04,0,0.082,0,0.123,0l45.118-0.663L0,206.156
		c74.25,0,74.25,22.5,148.5,22.5s74.25-22.5,148.5-22.5L208.498,127.845z"/>
</g>
<g>
</g>
<g>
</g>
<g>
</g>
<g>
</g>
<g>
</g>
<g>
</g>
<g>
</g>
<g>
</g>
<g>
</g>
<g>
</g>
<g>
</g>
<g>
</g>
<g>
</g>
<g>
</g>
<g>
</g>
</svg>
